<?xml version="1.0" encoding="UTF-8" standalone="no"?>
<svg
   xmlns:dc="http://purl.org/dc/elements/1.1/"
   xmlns:cc="http://creativecommons.org/ns#"
   xmlns:rdf="http://www.w3.org/1999/02/22-rdf-syntax-ns#"
   xmlns:svg="http://www.w3.org/2000/svg"
   xmlns="http://www.w3.org/2000/svg"
   xmlns:sodipodi="http://sodipodi.sourceforge.net/DTD/sodipodi-0.dtd"
   xmlns:inkscape="http://www.inkscape.org/namespaces/inkscape"
   sodipodi:docname="logo.svg"
   inkscape:version="1.0 (4035a4fb49, 2020-05-01)"
   id="svg3670"
   version="1.1"
   viewBox="0 0 225.52139 94.985428"
   height="94.985428mm"
   width="225.52139mm">
  <defs
     id="defs3664" />
  <sodipodi:namedview
     inkscape:window-maximized="0"
     inkscape:window-y="518"
     inkscape:window-x="5359"
     inkscape:window-height="1228"
     inkscape:window-width="1624"
     fit-margin-bottom="0"
     fit-margin-right="0"
     fit-margin-left="0"
     fit-margin-top="0"
     showgrid="false"
     inkscape:document-rotation="0"
     inkscape:current-layer="layer1"
     inkscape:document-units="mm"
     inkscape:cy="240.47023"
     inkscape:cx="557.01602"
     inkscape:zoom="0.49497475"
     inkscape:pageshadow="2"
     inkscape:pageopacity="0.0"
     borderopacity="1.0"
     bordercolor="#666666"
     pagecolor="#ffffff"
     id="base" />
  <metadata
     id="metadata3667">
    <rdf:RDF>
      <cc:Work
         rdf:about="">
        <dc:format>image/svg+xml</dc:format>
        <dc:type
           rdf:resource="http://purl.org/dc/dcmitype/StillImage" />
        <dc:title></dc:title>
      </cc:Work>
    </rdf:RDF>
  </metadata>
  <g
     transform="translate(3.9035572,-108.23348)"
     id="layer1"
     inkscape:groupmode="layer"
     inkscape:label="Layer 1">
    <path
       style="fill:#52cfb7;fill-opacity:0.988235;stroke:none;stroke-width:0.769144;stroke-linecap:round;stroke-opacity:0.532646"
       d="M 49.843447,113.63937 A 42.203568,42.203568 0 0 0 7.6398096,155.84301 42.203568,42.203568 0 0 0 49.843447,198.04665 42.203568,42.203568 0 0 0 92.047084,155.84301 42.203568,42.203568 0 0 0 49.843447,113.63937 Z M 24.258449,132.93382 H 42.5333 60.80868 v 14.6203 14.61976 h -8.818086 -8.817532 l -5.802233,4.64212 -5.802234,4.64156 v -4.64156 -4.64212 h -3.655086 -3.65506 v -14.61976 z m 3.65506,3.65506 v 10.96524 10.9647 h 3.655086 3.654558 v 2.66856 2.66806 l 3.335205,-2.66806 3.335179,-2.66856 h 7.630029 7.630028 v -10.9647 -10.96524 H 42.5333 Z m 36.549729,3.65353 h 5.482855 5.482352 v 14.61979 14.6203 h -3.654557 -3.655061 l -0.01243,4.63433 -0.01191,4.63487 -5.792947,-4.63487 0.0058,0.003 -5.79292,-4.63437 -8.487331,-0.0108 -8.486829,-0.0103 2.273247,-1.81851 2.273248,-1.81798 h 6.853317 6.853344 l 3.335179,2.66806 3.334702,2.66859 v -2.66859 -2.66806 h 3.655061 3.655589 V 154.8637 143.89846 h -3.655589 -3.655061 v -1.82726 z"
       id="circle2565" />
    <g
       style="font-style:normal;font-variant:normal;font-weight:normal;font-stretch:normal;font-size:50.485px;line-height:1.25;font-family:'Asap Condensed';-inkscape-font-specification:'Asap Condensed, Normal';font-variant-ligatures:normal;font-variant-caps:normal;font-variant-numeric:normal;font-feature-settings:normal;text-align:start;letter-spacing:0px;word-spacing:0px;writing-mode:lr-tb;text-anchor:start;fill:#52cfb7;fill-opacity:0.988235;stroke:none;stroke-width:1.26213"
       id="text2569"
       aria-label="banta">
      <path
         id="path4250"
         style="font-style:normal;font-variant:normal;font-weight:normal;font-stretch:normal;font-size:50.485px;font-family:'Asap Condensed';-inkscape-font-specification:'Asap Condensed, Normal';font-variant-ligatures:normal;font-variant-caps:normal;font-variant-numeric:normal;font-feature-settings:normal;text-align:start;writing-mode:lr-tb;text-anchor:start;fill:#52cfb7;fill-opacity:0.988235;stroke-width:1.26213"
         d="m 120.06267,169.39652 q -1.76698,0 -3.33201,-0.95921 -1.56504,-0.95922 -2.72619,-2.82716 l -0.50485,2.97861 q -0.25243,0.60582 -1.56504,0.60582 h -0.30291 q -1.666,0 -1.666,-1.11067 v -35.84435 q 0,-1.11067 1.91843,-1.11067 h 0.55533 q 1.86795,0 1.86795,1.11067 v 12.72222 q 1.11067,-1.26212 2.32231,-1.91843 1.26212,-0.6563 3.0291,-0.6563 3.78637,0 6.0582,3.53395 2.27182,3.48346 2.27182,9.79409 0,4.0388 -1.0097,7.16887 -0.95921,3.07958 -2.77667,4.79607 -1.76698,1.71649 -4.13977,1.71649 z m -1.06019,-3.6854 q 2.17086,0 3.28153,-2.62522 1.16115,-2.62522 1.16115,-7.4213 0,-9.54166 -4.84656,-9.54166 -2.52425,0 -4.29122,2.27182 v 13.83289 q 0.95921,1.66601 2.17085,2.57474 1.26213,0.90873 2.52425,0.90873 z" />
      <path
         id="path4252"
         style="font-style:normal;font-variant:normal;font-weight:normal;font-stretch:normal;font-size:50.485px;font-family:'Asap Condensed';-inkscape-font-specification:'Asap Condensed, Normal';font-variant-ligatures:normal;font-variant-caps:normal;font-variant-numeric:normal;font-feature-settings:normal;text-align:start;writing-mode:lr-tb;text-anchor:start;fill:#52cfb7;fill-opacity:0.988235;stroke-width:1.26213"
         d="m 136.77377,169.39652 q -3.3825,0 -5.4019,-2.0194 -1.96891,-2.06988 -1.96891,-5.80577 0,-3.78638 1.96891,-5.80578 1.96892,-2.0194 4.89705,-2.6757 2.92813,-0.70679 6.7145,-0.75728 v -2.37279 q 0,-1.71649 -1.06018,-2.82716 -1.06019,-1.11067 -3.33201,-1.11067 -1.76698,0 -3.13007,0.45436 -1.31261,0.40388 -2.27183,0.90873 -0.95921,0.45437 -1.11067,0.45437 -0.50485,0 -1.16115,-0.95922 -0.60582,-1.0097 -0.60582,-1.51455 0,-0.6563 1.16115,-1.36309 1.21164,-0.70679 3.13007,-1.16116 1.96892,-0.45436 4.0388,-0.45436 4.0388,0 6.31063,2.0194 2.27182,2.0194 2.27182,5.60383 v 11.61155 q 0,3.33201 0.30291,4.79608 0.30291,1.41358 0.30291,1.56503 0,0.60582 -0.95921,0.90873 -0.95922,0.25243 -1.76698,0.25243 -0.75727,0 -1.11067,-0.75728 -0.35339,-0.80776 -0.6563,-2.22134 -2.67571,3.23104 -6.56305,3.23104 z m 0.85824,-3.98831 q 3.28153,0 5.35141,-2.87765 V 156.018 q -2.82716,0.0505 -4.6951,0.40388 -1.81746,0.35339 -3.13007,1.56503 -1.31261,1.16116 -1.31261,3.53395 0,3.88735 3.78637,3.88735 z" />
      <path
         id="path4254"
         style="font-style:normal;font-variant:normal;font-weight:normal;font-stretch:normal;font-size:50.485px;font-family:'Asap Condensed';-inkscape-font-specification:'Asap Condensed, Normal';font-variant-ligatures:normal;font-variant-caps:normal;font-variant-numeric:normal;font-feature-settings:normal;text-align:start;writing-mode:lr-tb;text-anchor:start;fill:#52cfb7;fill-opacity:0.988235;stroke-width:1.26213"
         d="m 152.21325,169.19458 q -1.86795,0 -1.86795,-1.11067 v -17.8212 q 0,-3.28153 -0.25242,-4.74559 -0.25243,-1.46407 -0.25243,-1.61552 0,-0.60582 1.06019,-0.85825 1.11067,-0.30291 1.86794,-0.30291 0.70679,0 0.95922,0.65631 0.30291,0.6563 0.45436,1.51455 0.15146,0.85824 0.20194,1.26212 1.16116,-1.76697 2.82716,-2.77667 1.66601,-1.0097 3.53395,-1.0097 3.13007,0 4.84656,2.12037 1.71649,2.06988 1.71649,5.75529 v 17.8212 q 0,1.11067 -1.91843,1.11067 h -0.50485 q -1.96891,0 -1.96891,-1.11067 v -17.41732 q 0,-2.22134 -0.90873,-3.3825 -0.90873,-1.21164 -2.67571,-1.21164 -1.36309,0 -2.62522,1.0097 -1.26212,0.95922 -2.0194,2.52425 v 18.47751 q 0,1.11067 -1.91843,1.11067 z" />
      <path
         id="path4256"
         style="font-style:normal;font-variant:normal;font-weight:normal;font-stretch:normal;font-size:50.485px;font-family:'Asap Condensed';-inkscape-font-specification:'Asap Condensed, Normal';font-variant-ligatures:normal;font-variant-caps:normal;font-variant-numeric:normal;font-feature-settings:normal;text-align:start;writing-mode:lr-tb;text-anchor:start;fill:#52cfb7;fill-opacity:0.988235;stroke-width:1.26213"
         d="m 176.70796,169.39652 q -2.22134,0 -3.93783,-1.31261 -1.71649,-1.36309 -1.71649,-4.79607 v -16.96296 h -1.66601 q -0.50485,0 -0.75727,-0.3534 -0.25243,-0.35339 -0.25243,-1.16115 v -0.60582 q 0,-0.80776 0.25243,-1.16116 0.25242,-0.35339 0.75727,-0.35339 h 1.66601 l 0.60582,-5.30093 q 0.10097,-1.11067 1.61552,-1.11067 h 0.50485 q 1.51455,0 1.51455,1.11067 v 5.30093 h 3.33201 q 0.55533,0 0.75727,0.35339 0.25243,0.3534 0.25243,1.16116 v 0.60582 q 0,0.80776 -0.25243,1.16115 -0.20194,0.3534 -0.75727,0.3534 h -3.33201 v 16.25617 q 0,1.81746 0.50485,2.52425 0.50485,0.6563 1.46406,0.6563 0.65631,0 1.11067,-0.10097 0.45437,-0.15145 0.60582,-0.15145 0.45437,0 0.75728,0.90873 0.30291,0.90873 0.30291,1.51455 0,0.80776 -1.06019,1.16115 -1.0097,0.30291 -2.27182,0.30291 z" />
      <path
         id="path4258"
         style="font-style:normal;font-variant:normal;font-weight:normal;font-stretch:normal;font-size:50.485px;font-family:'Asap Condensed';-inkscape-font-specification:'Asap Condensed, Normal';font-variant-ligatures:normal;font-variant-caps:normal;font-variant-numeric:normal;font-feature-settings:normal;text-align:start;writing-mode:lr-tb;text-anchor:start;fill:#52cfb7;fill-opacity:0.988235;stroke-width:1.26213"
         d="m 188.12379,169.39652 q -3.38249,0 -5.40189,-2.0194 -1.96892,-2.06988 -1.96892,-5.80577 0,-3.78638 1.96892,-5.80578 1.96891,-2.0194 4.89704,-2.6757 2.92813,-0.70679 6.71451,-0.75728 v -2.37279 q 0,-1.71649 -1.06019,-2.82716 -1.06018,-1.11067 -3.33201,-1.11067 -1.76697,0 -3.13007,0.45436 -1.31261,0.40388 -2.27182,0.90873 -0.95922,0.45437 -1.11067,0.45437 -0.50485,0 -1.16116,-0.95922 -0.60582,-1.0097 -0.60582,-1.51455 0,-0.6563 1.16116,-1.36309 1.21164,-0.70679 3.13007,-1.16116 1.96891,-0.45436 4.0388,-0.45436 4.0388,0 6.31062,2.0194 2.27183,2.0194 2.27183,5.60383 v 11.61155 q 0,3.33201 0.30291,4.79608 0.30291,1.41358 0.30291,1.56503 0,0.60582 -0.95922,0.90873 -0.95921,0.25243 -1.76697,0.25243 -0.75728,0 -1.11067,-0.75728 -0.3534,-0.80776 -0.65631,-2.22134 -2.6757,3.23104 -6.56305,3.23104 z m 0.85825,-3.98831 q 3.28152,0 5.35141,-2.87765 V 156.018 q -2.82716,0.0505 -4.69511,0.40388 -1.81746,0.35339 -3.13007,1.56503 -1.31261,1.16116 -1.31261,3.53395 0,3.88735 3.78638,3.88735 z" />
    </g>
  </g>
</svg>
